<svg xmlns="http://www.w3.org/2000/svg" width="20.307" height="20.528" viewBox="0 0 20.307 20.528">
  <g id="new_ft1on" transform="translate(1.078 1)">
    <ellipse id="타원_5" data-name="타원 5" cx="4.731" cy="4.731" rx="4.731" ry="4.731" transform="translate(2.679 0)" fill="none" stroke="#cca5ff" stroke-linecap="round" stroke-linejoin="round" stroke-width="2"/>
    <path id="패스_15584" data-name="패스 15584" d="M3,51.822A7.441,7.441,0,0,1,12.832,45.4a7.36,7.36,0,0,1,1.024.442" transform="translate(-3 -35.537)" fill="none" stroke="#cca5ff" stroke-linecap="round" stroke-linejoin="round" stroke-width="2"/>
    <path id="패스_15585" data-name="패스 15585" d="M45.731,47.056a3.6,3.6,0,1,1,0,5.1A3.6,3.6,0,0,1,45.731,47.056Z" transform="translate(-35.285 -36.312)" fill="none" stroke="#cca5ff" stroke-linecap="round" stroke-linejoin="round" stroke-width="2"/>
    <line id="선_506" data-name="선 506" x2="2.192" y2="2.192" transform="translate(15.623 15.922)" fill="#fff" stroke="#cca5ff" stroke-width="2"/>
    <line id="선_507" data-name="선 507" x2="2.192" y2="2.192" transform="translate(15.623 15.922)" fill="none" stroke="#cca5ff" stroke-linecap="round" stroke-linejoin="round" stroke-width="2"/>
    <path id="패스_15586" data-name="패스 15586" d="M54.27,55.154l-.286.295-.286-.295a.952.952,0,0,0-1.375,0,1.023,1.023,0,0,0,0,1.416L53.984,58.4l1.661-1.829a1.023,1.023,0,0,0,0-1.416.953.953,0,0,0-1.375,0" transform="translate(-40.989 -43.176)" fill="#cca5ff"/>
  </g>
</svg>
