<svg xmlns="http://www.w3.org/2000/svg" width="19.015" height="19.014" viewBox="0 0 19.015 19.014">
  <g id="new_ft4on" fill="none">
    <path d="M2.377,0A2.379,2.379,0,0,0,0,2.377v10.7A2.379,2.379,0,0,0,2.377,15.45H5.942v2.971a.591.591,0,0,0,.327.531.6.6,0,0,0,.624-.056l4.594-3.446h5.151a2.379,2.379,0,0,0,2.377-2.377V2.377A2.379,2.379,0,0,0,16.638,0Z" stroke="none"/>
    <path d="M 2.376861572265625 2 C 2.169061660766602 2 2.000001907348633 2.169059753417969 2.000001907348633 2.376869201660156 L 2.000001907348633 13.0727596282959 C 2.000001907348633 13.28055953979492 2.169061660766602 13.44961929321289 2.376861572265625 13.44961929321289 L 7.942172050476074 13.44961929321289 L 7.942172050476074 15.60868549346924 L 10.82014179229736 13.44961929321289 L 16.6380729675293 13.44961929321289 C 16.84588241577148 13.44961929321289 17.01494216918945 13.28055953979492 17.01494216918945 13.0727596282959 L 17.01494216918945 2.376869201660156 C 17.01494216918945 2.169059753417969 16.84588241577148 2 16.6380729675293 2 L 2.376861572265625 2 M 2.376861572265625 0 L 16.6380729675293 0 C 17.94906234741211 0 19.01494216918945 1.065879821777344 19.01494216918945 2.376869201660156 L 19.01494216918945 13.0727596282959 C 19.01494216918945 14.38374900817871 17.94906234741211 15.44961929321289 16.6380729675293 15.44961929321289 L 11.48695182800293 15.44961929321289 L 6.892922401428223 18.89608001708984 C 6.710940361022949 19.02976989746094 6.469541549682617 19.05205917358398 6.26899242401123 18.95178031921387 C 6.068442344665527 18.85150909423828 5.942172050476074 18.64724922180176 5.942172050476074 18.42070960998535 L 5.942172050476074 15.44961929321289 L 2.376861572265625 15.44961929321289 C 1.065872192382812 15.44961929321289 1.9073486328125e-06 14.38374900817871 1.9073486328125e-06 13.0727596282959 L 1.9073486328125e-06 2.376869201660156 C 1.9073486328125e-06 1.065879821777344 1.065872192382812 0 2.376861572265625 0 Z" stroke="none" fill="#cca5ff"/>
  </g>
</svg>
