<svg xmlns="http://www.w3.org/2000/svg" width="21.76" height="20.113" viewBox="0 0 21.76 20.113">
  <g id="new_ft3" transform="translate(1 1)">
    <path id="패스_15573" data-name="패스 15573" d="M27.793,17.98l-.66.68-.66-.68a2.2,2.2,0,0,0-3.172,0,2.359,2.359,0,0,0,0,3.267l3.832,4.218,3.832-4.218a2.359,2.359,0,0,0,0-3.267,2.2,2.2,0,0,0-3.172,0" transform="translate(-17.253 -13.378)" fill="#d4d4d4"/>
    <path id="패스_15574" data-name="패스 15574" d="M65.27,28.32c.089-.008.175-.023.267-.023a2.231,2.231,0,0,1,2.4,2v1.825a2.23,2.23,0,0,1-2.4,2c-.092,0-.267-.022-.267-.022" transform="translate(-48.18 -21.354)" fill="none" stroke="#d4d4d4" stroke-linecap="round" stroke-linejoin="round" stroke-width="2"/>
    <path id="패스_15575" data-name="패스 15575" d="M5.67,28.32C5.582,28.312,5.5,28.3,5.4,28.3a2.231,2.231,0,0,0-2.4,2v1.825a2.23,2.23,0,0,0,2.4,2c.092,0,.178-.015.267-.022l.411-.058" transform="translate(-3 -21.354)" fill="none" stroke="#d4d4d4" stroke-linecap="round" stroke-linejoin="round" stroke-width="2"/>
    <path id="패스_15576" data-name="패스 15576" d="M34.706,60.605A1.335,1.335,0,0,1,33.37,61.94H29.632a1.335,1.335,0,1,1,0-2.67H33.37A1.335,1.335,0,0,1,34.706,60.605Z" transform="translate(-21.354 -43.827)" fill="none" stroke="#d4d4d4" stroke-linecap="round" stroke-linejoin="round" stroke-width="2"/>
    <path id="패스_15577" data-name="패스 15577" d="M17.313,18.924a5.341,5.341,0,0,1-4.583-5.287V8.34A5.34,5.34,0,0,1,18.071,3h3.738A5.341,5.341,0,0,1,27.15,8.34v7.432" transform="translate(-10.06 -3)" fill="none" stroke="#d4d4d4" stroke-linecap="round" stroke-linejoin="round" stroke-width="2"/>
  </g>
</svg>
