<svg xmlns="http://www.w3.org/2000/svg" width="18.518" height="16.462" viewBox="0 0 18.518 16.462">
  <path id="new_ft" d="M18.513,8.215a1.039,1.039,0,0,1-1.029,1.032H16.455l.023,5.151a2.359,2.359,0,0,1-.016.26v.518a1.286,1.286,0,0,1-1.286,1.286h-.514c-.035,0-.071,0-.106,0s-.09,0-.135,0H12.6a1.286,1.286,0,0,1-1.286-1.286V12.346a1.028,1.028,0,0,0-1.029-1.029H8.231A1.028,1.028,0,0,0,7.2,12.346v2.829a1.286,1.286,0,0,1-1.286,1.286h-1.8c-.048,0-.1,0-.145-.006s-.077.006-.116.006H3.344a1.286,1.286,0,0,1-1.286-1.286v-3.6a.842.842,0,0,1,0-.09V9.247H1.029A1.016,1.016,0,0,1,0,8.215a1.045,1.045,0,0,1,.322-.772L8.565.257A.928.928,0,0,1,9.273,0a1.068,1.068,0,0,1,.675.225L18.16,7.443A.881.881,0,0,1,18.513,8.215Z" fill="#d4d4d4"/>
</svg>
